<?xml version="1.0" encoding="utf-8"?>
<!-- Generator: Adobe Illustrator 21.1.0, SVG Export Plug-In . SVG Version: 6.00 Build 0)  -->
<svg version="1.1" id="Layer_1" xmlns="http://www.w3.org/2000/svg" xmlns:xlink="http://www.w3.org/1999/xlink" x="0px" y="0px"
	 viewBox="0 0 196.1 198" style="enable-background:new 0 0 196.1 198;" xml:space="preserve">
<style type="text/css">
	.st0{fill:#059447;}
	.st1{fill:#18AA4A;}
</style>
<g>
	<path class="st0" d="M196.1,99.2c0,12.8-2.4,25.6-7.2,37.5c-4.8,12-11.9,22.9-20.9,32.2c-18.3,18.8-43.4,29.4-69.7,29.1
		c-19.5-0.2-38.5-6.2-54.6-17.2c-5.3-3.6-10.3-7.7-14.8-12.3c-9.1-9.2-16.3-20-21.3-31.8c-2.5-5.9-4.4-12.1-5.7-18.4
		c-1.3-6.3-2-12.7-2.1-19.2c-0.3-26.2,9.9-51.4,28.4-70c9.2-9.2,20.1-16.6,32-21.6c24.3-10.1,51.6-10.1,75.8,0.1
		c11.9,5.1,22.7,12.5,31.8,21.8c9,9.3,16.1,20.2,20.9,32.2C193.7,73.6,196.1,86.3,196.1,99.2z M195.8,99.2c0-12.8-2.6-25.4-7.7-37.2
		c-5-11.7-12.3-22.3-21.5-31.1c-9.1-8.8-19.8-15.8-31.5-20.5C129.4,8,123.3,6.2,117.1,5C64.6-5.2,13.6,29.1,3.4,81.7
		c-1.1,5.8-1.7,11.6-1.8,17.5c-0.1,12.7,2.3,25.4,7.1,37.2c2.4,5.9,5.4,11.5,8.9,16.8c3.5,5.3,7.6,10.2,12.1,14.7
		c18.3,18,43,28,68.6,27.7c25.5-0.2,50-10.2,68.3-28c9.1-8.9,16.4-19.5,21.5-31.1c2.5-5.9,4.4-12,5.7-18.2
		C195.2,111.9,195.8,105.6,195.8,99.2z"/>
	<polygon class="st1" points="37.2,155.9 65.6,107.7 92,58.4 46.8,98.1 	"/>
	<polygon class="st1" points="177,125 121.1,124.5 65.2,126.4 122.2,145.7 	"/>
	<polygon class="st1" points="80,19.2 107.5,67.8 137.1,115.3 125.2,56.3 	"/>
</g>
</svg>
